<svg width="26" height="22" viewBox="0 0 26 22" fill="none" xmlns="http://www.w3.org/2000/svg">
<path d="M26 2.50945C25.0439 2.92195 24.0034 3.21882 22.9316 3.33445C24.0443 2.67331 24.8776 1.62882 25.2751 0.396949C24.2309 1.01816 23.0871 1.45377 21.8942 1.68445C21.3957 1.15141 20.7927 0.72676 20.1229 0.436972C19.4531 0.147183 18.7308 -0.00153829 18.001 7.40052e-05C15.0482 7.40052e-05 12.6735 2.39382 12.6735 5.33132C12.6735 5.74382 12.7235 6.15632 12.8047 6.55319C8.38337 6.32195 4.44009 4.20945 1.81853 0.975073C1.34086 1.79106 1.09054 2.72015 1.09362 3.6657C1.09362 5.51569 2.03413 7.14694 3.46833 8.10632C2.62314 8.07303 1.79773 7.84069 1.05925 7.42819V7.49382C1.05925 10.0844 2.89028 12.2313 5.33061 12.7251C4.87241 12.8441 4.40106 12.905 3.92765 12.9063C3.58082 12.9063 3.25273 12.8719 2.92152 12.8251C3.59644 14.9376 5.56183 16.4719 7.90218 16.5219C6.07115 17.9563 3.77767 18.8001 1.28735 18.8001C0.840524 18.8001 0.428074 18.7844 0 18.7344C2.36222 20.2501 5.165 21.1251 8.18339 21.1251C17.9822 21.1251 23.3441 13.0063 23.3441 5.95945C23.3441 5.7282 23.3441 5.49695 23.3284 5.2657C24.3658 4.50632 25.2751 3.5657 26 2.50945Z" fill="#DFDFDF"/>
</svg>
