<svg width="28" height="16" viewBox="0 0 28 16" fill="none" xmlns="http://www.w3.org/2000/svg">
<path fill-rule="evenodd" clip-rule="evenodd" d="M13.7415 15.767H15.4392C15.4392 15.767 15.9485 15.6831 16.2031 15.4315C16.4577 15.1799 16.4577 14.6767 16.4577 14.6767C16.4577 14.6767 16.4577 12.4962 17.4763 12.1607C18.4949 11.8253 19.853 14.3412 21.2112 15.2638C22.2298 16.0186 22.9937 15.8508 22.9937 15.8508L26.7285 15.767C26.7285 15.767 28.6808 15.6831 27.7471 14.0897C27.6622 14.0058 27.2378 12.9994 24.946 10.9027C22.5693 8.72219 22.9088 9.14152 25.7099 5.36752C27.4076 3.10312 28.0866 1.76126 27.9169 1.09033C27.7471 0.50326 26.4739 0.670993 26.4739 0.670993H22.2297C22.2297 0.670993 21.8902 0.587127 21.7205 0.75486C21.4658 0.922593 21.3809 1.17419 21.3809 1.17419C21.3809 1.17419 20.7019 2.93539 19.853 4.44499C17.9856 7.54805 17.2217 7.71579 16.967 7.54806C16.288 7.12872 16.4577 5.70299 16.4577 4.78046C16.4577 1.76126 16.967 0.50326 15.524 0.167793C15.0996 0.0839267 14.7601 6.10352e-05 13.5717 6.10352e-05C12.0439 6.10352e-05 10.7706 6.07102e-05 10.0916 0.335527C9.58228 0.587127 9.24275 1.09033 9.4974 1.09033C9.75204 1.09033 10.4311 1.25806 10.7706 1.67739C11.1102 2.43219 11.1102 3.69019 11.1102 3.69019C11.1102 3.69019 11.3648 7.29645 10.516 7.71579C9.92181 8.05125 9.15787 7.38032 7.46022 4.52886C6.61139 3.10312 5.93233 1.42579 5.93233 1.42579C5.93233 1.42579 5.84745 1.09033 5.59281 0.922594C5.33816 0.754861 4.91375 0.670993 4.91375 0.670993H0.924275C0.924275 0.670993 0.330098 0.670994 0.075451 0.922594C-0.0943138 1.17419 0.075451 1.59353 0.075451 1.59353C0.075451 1.59353 3.2161 8.80605 6.78116 12.4962C10.0916 16.0186 13.7415 15.767 13.7415 15.767V15.767Z" fill="#DFDFDF"/>
</svg>
