<?xml version="1.0" encoding="utf-8"?>
<!-- Generator: Adobe Illustrator 21.0.2, SVG Export Plug-In . SVG Version: 6.00 Build 0)  -->
<svg version="1.1" id="Слой_1" xmlns="http://www.w3.org/2000/svg" xmlns:xlink="http://www.w3.org/1999/xlink" x="0px" y="0px"
	 viewBox="0 0 79 327" style="enable-background:new 0 0 79 327;" xml:space="preserve">
<style type="text/css">
	.st0{fill:#dfdfdf;}
</style>
<path class="st0" d="M0.3,171.7c24.8,0,34-23.2,34.2-38.7V70.7c-0.1-12.7,4-31.6,15.6-43.2c7.1-7.1,16.4-10.7,27.6-10.7
	c0.1,0,0.2,0,0.3,0l0.1-16c-0.1,0-0.3,0-0.4,0C62.1,0.8,49,6,38.8,16.2C23.7,31.2,18.4,54.2,18.4,70.8v62.2
	c0,0.9-0.4,22.8-18.2,22.8V171.7z"/>
<path class="st0" d="M77.7,327c0.1,0,0.3,0,0.4,0L78,311c-11.4,0.1-20.7-3.5-27.9-10.7c-11.6-11.6-15.7-30.5-15.6-43.2v-62.2
	C34.3,179.2,25.1,156,0.3,156v16c17.8,0,18.2,21.9,18.2,22.9v62.1c-0.1,16.5,5.2,39.5,20.3,54.6C49,321.8,62.1,327,77.7,327z"/>
</svg>
